<mxfile host="app.diagrams.net" agent="Mozilla/5.0 (Macintosh; Intel Mac OS X 10_15_7) AppleWebKit/605.1.15 (KHTML, like Gecko) Version/26.0.1 Safari/605.1.15" version="28.2.5">
  <diagram name="Page-1" id="J4U8BJeTrwige7BMSKpR">
    <mxGraphModel dx="1982" dy="720" grid="1" gridSize="10" guides="1" tooltips="1" connect="1" arrows="1" fold="1" page="1" pageScale="1" pageWidth="850" pageHeight="1100" math="0" shadow="0">
      <root>
        <mxCell id="0" />
        <mxCell id="1" parent="0" />
        <mxCell id="JOW_fU0xL7bT5SS17bey-1" value="&amp;lt;&amp;lt;Notebook&amp;gt;&amp;gt;" style="verticalAlign=top;align=center;spacingTop=8;spacingLeft=2;spacingRight=12;shape=cube;size=10;direction=south;fontStyle=4;html=1;whiteSpace=wrap;" vertex="1" parent="1">
          <mxGeometry x="390" y="310" width="210" height="140" as="geometry" />
        </mxCell>
        <mxCell id="JOW_fU0xL7bT5SS17bey-2" value="&amp;lt;&amp;lt;Browser&amp;gt;&amp;gt;:&lt;div&gt;&lt;div&gt;Chrome&lt;/div&gt;&lt;div&gt;&amp;nbsp; &amp;nbsp; &amp;nbsp; Angular Frontend (REST API)&lt;/div&gt;&lt;/div&gt;" style="verticalAlign=top;align=center;spacingTop=8;spacingLeft=2;spacingRight=12;shape=cube;size=10;direction=south;fontStyle=4;html=1;whiteSpace=wrap;" vertex="1" parent="1">
          <mxGeometry x="410" y="350" width="160" height="80" as="geometry" />
        </mxCell>
        <mxCell id="JOW_fU0xL7bT5SS17bey-3" value="&amp;lt;&amp;lt;Tablet&amp;gt;&amp;gt;" style="verticalAlign=top;align=center;spacingTop=8;spacingLeft=2;spacingRight=12;shape=cube;size=10;direction=south;fontStyle=4;html=1;whiteSpace=wrap;" vertex="1" parent="1">
          <mxGeometry x="50" y="310" width="210" height="140" as="geometry" />
        </mxCell>
        <mxCell id="JOW_fU0xL7bT5SS17bey-4" value="&lt;div&gt;«Prehliadač»&amp;nbsp;&lt;/div&gt;&lt;div style=&quot;&quot;&gt;:Safari&lt;/div&gt;&lt;div&gt;&amp;nbsp; &amp;nbsp; &amp;nbsp; Angular Frontend (REST API)&lt;/div&gt;" style="verticalAlign=top;align=center;spacingTop=8;spacingLeft=2;spacingRight=12;shape=cube;size=10;direction=south;fontStyle=4;html=1;whiteSpace=wrap;" vertex="1" parent="1">
          <mxGeometry x="70" y="350" width="160" height="90" as="geometry" />
        </mxCell>
        <mxCell id="JOW_fU0xL7bT5SS17bey-5" value="" style="html=1;whiteSpace=wrap;dashed=1;rotation=90;fillColor=none;" vertex="1" parent="1">
          <mxGeometry x="207.5" y="670" width="505" height="265" as="geometry" />
        </mxCell>
        <mxCell id="JOW_fU0xL7bT5SS17bey-6" value="Cluster" style="rounded=0;whiteSpace=wrap;html=1;" vertex="1" parent="1">
          <mxGeometry x="270" y="530" width="100" height="40" as="geometry" />
        </mxCell>
        <mxCell id="JOW_fU0xL7bT5SS17bey-7" value="«HW Aplikačný server» Perseus" style="verticalAlign=top;align=center;spacingTop=8;spacingLeft=2;spacingRight=12;shape=cube;size=10;direction=south;fontStyle=4;html=1;whiteSpace=wrap;" vertex="1" parent="1">
          <mxGeometry x="350" y="560" width="220" height="210" as="geometry" />
        </mxCell>
        <mxCell id="JOW_fU0xL7bT5SS17bey-8" value="«Virtuálny stroj» :JBoss_VM1" style="verticalAlign=top;align=center;spacingTop=8;spacingLeft=2;spacingRight=12;shape=cube;size=10;direction=south;fontStyle=4;html=1;whiteSpace=wrap;" vertex="1" parent="1">
          <mxGeometry x="360" y="600" width="190" height="150" as="geometry" />
        </mxCell>
        <mxCell id="JOW_fU0xL7bT5SS17bey-17" value="«HW Databázový server» Herkules" style="verticalAlign=top;align=center;spacingTop=8;spacingLeft=2;spacingRight=12;shape=cube;size=10;direction=south;fontStyle=4;html=1;whiteSpace=wrap;" vertex="1" parent="1">
          <mxGeometry x="780" y="370" width="200" height="370" as="geometry" />
        </mxCell>
        <mxCell id="JOW_fU0xL7bT5SS17bey-20" value="&lt;div style=&quot;text-align: center;&quot;&gt;«Databázový server» :PostgreSQL&lt;/div&gt;" style="verticalAlign=top;align=left;spacingTop=8;spacingLeft=2;spacingRight=12;shape=cube;size=10;direction=south;fontStyle=4;html=1;whiteSpace=wrap;" vertex="1" parent="1">
          <mxGeometry x="795" y="457.5" width="150" height="195" as="geometry" />
        </mxCell>
        <mxCell id="JOW_fU0xL7bT5SS17bey-21" value="&lt;span style=&quot;text-align: left; text-decoration: underline;&quot;&gt;DB_UverovySystem&lt;/span&gt;" style="html=1;dropTarget=0;whiteSpace=wrap;" vertex="1" parent="1">
          <mxGeometry x="810" y="540" width="120" height="65" as="geometry" />
        </mxCell>
        <mxCell id="JOW_fU0xL7bT5SS17bey-22" value="" style="shape=module;jettyWidth=8;jettyHeight=4;" vertex="1" parent="JOW_fU0xL7bT5SS17bey-21">
          <mxGeometry x="1" width="20" height="20" relative="1" as="geometry">
            <mxPoint x="-27" y="7" as="offset" />
          </mxGeometry>
        </mxCell>
        <mxCell id="JOW_fU0xL7bT5SS17bey-25" value="«Aplikačný server» :JBoss EAP" style="verticalAlign=top;align=center;spacingTop=8;spacingLeft=2;spacingRight=12;shape=cube;size=10;direction=south;fontStyle=4;html=1;whiteSpace=wrap;" vertex="1" parent="1">
          <mxGeometry x="377.5" y="640" width="152.5" height="100" as="geometry" />
        </mxCell>
        <mxCell id="JOW_fU0xL7bT5SS17bey-26" value="&lt;span style=&quot;&quot;&gt;&lt;font style=&quot;font-size: 7px;&quot;&gt;UverovySystem-backend (JakartaEE)&lt;/font&gt;&lt;/span&gt;" style="html=1;dropTarget=0;whiteSpace=wrap;align=left;" vertex="1" parent="1">
          <mxGeometry x="397.5" y="690" width="112.5" height="40" as="geometry" />
        </mxCell>
        <mxCell id="JOW_fU0xL7bT5SS17bey-27" value="" style="shape=module;jettyWidth=8;jettyHeight=4;" vertex="1" parent="JOW_fU0xL7bT5SS17bey-26">
          <mxGeometry x="1" width="20" height="20" relative="1" as="geometry">
            <mxPoint x="-27" y="7" as="offset" />
          </mxGeometry>
        </mxCell>
        <mxCell id="JOW_fU0xL7bT5SS17bey-28" value="«HW Aplikačný server» Cassiopeia" style="verticalAlign=top;align=center;spacingTop=8;spacingLeft=2;spacingRight=12;shape=cube;size=10;direction=south;fontStyle=4;html=1;whiteSpace=wrap;" vertex="1" parent="1">
          <mxGeometry x="350" y="810" width="220" height="210" as="geometry" />
        </mxCell>
        <mxCell id="JOW_fU0xL7bT5SS17bey-29" value="«Virtuálny stroj» :JBoss_VM2" style="verticalAlign=top;align=center;spacingTop=8;spacingLeft=2;spacingRight=12;shape=cube;size=10;direction=south;fontStyle=4;html=1;whiteSpace=wrap;" vertex="1" parent="1">
          <mxGeometry x="360" y="850" width="190" height="150" as="geometry" />
        </mxCell>
        <mxCell id="JOW_fU0xL7bT5SS17bey-30" value="«Aplikačný server» :JBoss EAP" style="verticalAlign=top;align=center;spacingTop=8;spacingLeft=2;spacingRight=12;shape=cube;size=10;direction=south;fontStyle=4;html=1;whiteSpace=wrap;" vertex="1" parent="1">
          <mxGeometry x="377.5" y="890" width="152.5" height="100" as="geometry" />
        </mxCell>
        <mxCell id="JOW_fU0xL7bT5SS17bey-31" value="&lt;span style=&quot;&quot;&gt;&lt;font style=&quot;font-size: 7px;&quot;&gt;UverovySystem-backend (JakartaEE)&lt;/font&gt;&lt;/span&gt;" style="html=1;dropTarget=0;whiteSpace=wrap;align=left;" vertex="1" parent="1">
          <mxGeometry x="397.5" y="940" width="112.5" height="40" as="geometry" />
        </mxCell>
        <mxCell id="JOW_fU0xL7bT5SS17bey-32" value="" style="shape=module;jettyWidth=8;jettyHeight=4;" vertex="1" parent="JOW_fU0xL7bT5SS17bey-31">
          <mxGeometry x="1" width="20" height="20" relative="1" as="geometry">
            <mxPoint x="-27" y="7" as="offset" />
          </mxGeometry>
        </mxCell>
        <mxCell id="JOW_fU0xL7bT5SS17bey-34" value="" style="endArrow=none;html=1;rounded=0;exitX=0;exitY=0;exitDx=40;exitDy=0;exitPerimeter=0;entryX=0;entryY=0.5;entryDx=0;entryDy=0;" edge="1" parent="1" source="JOW_fU0xL7bT5SS17bey-4" target="JOW_fU0xL7bT5SS17bey-31">
          <mxGeometry width="50" height="50" relative="1" as="geometry">
            <mxPoint x="390" y="280" as="sourcePoint" />
            <mxPoint x="440" y="230" as="targetPoint" />
          </mxGeometry>
        </mxCell>
        <mxCell id="JOW_fU0xL7bT5SS17bey-35" value="REST" style="text;html=1;align=center;verticalAlign=middle;resizable=0;points=[];autosize=1;strokeColor=none;fillColor=none;" vertex="1" parent="1">
          <mxGeometry x="250" y="457.5" width="60" height="30" as="geometry" />
        </mxCell>
        <mxCell id="JOW_fU0xL7bT5SS17bey-36" value="" style="endArrow=none;html=1;rounded=0;exitX=0;exitY=0.5;exitDx=0;exitDy=0;entryX=1;entryY=0.5;entryDx=0;entryDy=0;" edge="1" parent="1" source="JOW_fU0xL7bT5SS17bey-21" target="JOW_fU0xL7bT5SS17bey-31">
          <mxGeometry width="50" height="50" relative="1" as="geometry">
            <mxPoint x="310" y="420" as="sourcePoint" />
            <mxPoint x="478" y="480" as="targetPoint" />
          </mxGeometry>
        </mxCell>
        <mxCell id="JOW_fU0xL7bT5SS17bey-43" value="" style="shape=folder;fontStyle=1;spacingTop=10;tabWidth=40;tabHeight=14;tabPosition=left;html=1;whiteSpace=wrap;" vertex="1" parent="1">
          <mxGeometry x="-210" y="460" width="310" height="950" as="geometry" />
        </mxCell>
        <mxCell id="JOW_fU0xL7bT5SS17bey-44" value="Externé systémy" style="text;html=1;align=center;verticalAlign=middle;resizable=0;points=[];autosize=1;strokeColor=none;fillColor=none;" vertex="1" parent="1">
          <mxGeometry x="-200" y="480" width="110" height="30" as="geometry" />
        </mxCell>
        <mxCell id="JOW_fU0xL7bT5SS17bey-45" value="&lt;div&gt;«Externý systém»&lt;/div&gt;&lt;div style=&quot;text-align: center;&quot;&gt;Ministerstvo vnútra SR&lt;/div&gt;" style="verticalAlign=top;align=left;spacingTop=8;spacingLeft=2;spacingRight=12;shape=cube;size=10;direction=south;fontStyle=4;html=1;whiteSpace=wrap;" vertex="1" parent="1">
          <mxGeometry x="-190" y="512.5" width="270" height="147.5" as="geometry" />
        </mxCell>
        <mxCell id="JOW_fU0xL7bT5SS17bey-51" value="«Component» :Databáza stratených a odcudzených dokladov" style="html=1;dropTarget=0;whiteSpace=wrap;" vertex="1" parent="1">
          <mxGeometry x="-180" y="570" width="240" height="70" as="geometry" />
        </mxCell>
        <mxCell id="JOW_fU0xL7bT5SS17bey-52" value="" style="shape=module;jettyWidth=8;jettyHeight=4;" vertex="1" parent="JOW_fU0xL7bT5SS17bey-51">
          <mxGeometry x="1" width="20" height="20" relative="1" as="geometry">
            <mxPoint x="-27" y="7" as="offset" />
          </mxGeometry>
        </mxCell>
        <mxCell id="JOW_fU0xL7bT5SS17bey-53" value="&lt;div&gt;«Externý systém»&lt;/div&gt;&lt;div&gt;Sociálna poisťovňa&lt;/div&gt;" style="verticalAlign=top;align=left;spacingTop=8;spacingLeft=2;spacingRight=12;shape=cube;size=10;direction=south;fontStyle=4;html=1;whiteSpace=wrap;" vertex="1" parent="1">
          <mxGeometry x="-190" y="680" width="270" height="147.5" as="geometry" />
        </mxCell>
        <mxCell id="JOW_fU0xL7bT5SS17bey-54" value="«Component» :Overenie príjmov (SOAP)" style="html=1;dropTarget=0;whiteSpace=wrap;" vertex="1" parent="1">
          <mxGeometry x="-180" y="737.5" width="240" height="70" as="geometry" />
        </mxCell>
        <mxCell id="JOW_fU0xL7bT5SS17bey-55" value="" style="shape=module;jettyWidth=8;jettyHeight=4;" vertex="1" parent="JOW_fU0xL7bT5SS17bey-54">
          <mxGeometry x="1" width="20" height="20" relative="1" as="geometry">
            <mxPoint x="-27" y="7" as="offset" />
          </mxGeometry>
        </mxCell>
      </root>
    </mxGraphModel>
  </diagram>
</mxfile>
